<svg width="450" height="270" viewBox="0 0 450 270" fill="none" xmlns="http://www.w3.org/2000/svg">
<g clip-path="url(#clip0_536_106)">
<mask id="mask0_536_106" style="mask-type:luminance" maskUnits="userSpaceOnUse" x="-182" y="40" width="632" height="160">
<path d="M-182 39.9998H450V200H-182V39.9998Z" fill="white"/>
</mask>
<g mask="url(#mask0_536_106)">
<path d="M295.199 134.888H311.279V138.608H295.199V134.888Z" fill="white"/>
<path d="M27.7849 112.316L26.3456 149.666V150.313C26.3456 153.48 27.2815 154.128 32.3186 154.487V156.215C28.6485 155.927 27.2092 155.855 25.1941 155.855C23.1796 155.855 21.7403 155.927 17.998 156.215V154.487C23.0357 154.128 23.7548 153.552 23.8987 149.666L25.4103 114.331V113.9C25.4103 110.589 24.4028 109.869 19.4374 109.582V107.783C22.2438 107.998 23.323 108.071 25.3381 108.071C28.0011 108.071 29.4405 107.998 32.1746 107.71L45.5604 144.124L59.1613 107.71C62.4 107.998 63.9111 108.071 66.0701 108.071C67.8689 108.071 69.0204 107.998 71.7546 107.783V109.582C66.8614 109.869 65.7816 110.589 65.7816 113.827V114.331L66.5735 149.666C66.6458 153.552 67.2932 154.128 72.4748 154.487V156.215C67.9412 155.782 66.214 155.639 63.4793 155.639C60.7445 155.639 59.0173 155.782 54.4837 156.215V154.487C59.3774 154.199 60.4567 153.408 60.4567 150.026V149.666L59.8087 112.389L47.935 144.484L47.0714 146.859L46.0639 149.522L45.1286 152.256L44.3367 154.632H43.2569L42.4661 152.329L41.458 149.522L40.4505 146.715L39.5869 144.196L27.7849 112.316Z" fill="white"/>
<path d="M81.8251 135.562C82.5448 127.286 85.2795 123.04 89.8854 123.04C94.5629 123.04 96.9375 127.07 97.3699 135.562H81.8251ZM91.1808 154.416C84.6321 154.416 81.7534 149.379 81.6812 138.152H103.127C102.983 127.07 98.4491 121.169 89.957 121.169C81.321 121.169 75.9238 128.15 75.9238 139.232C75.9238 150.314 81.321 156.792 90.605 156.792C97.6572 156.792 102.263 152.401 103.199 144.989H100.32C99.4561 151.106 96.2901 154.416 91.1808 154.416Z" fill="white"/>
<path d="M107.415 123.83V122.535C111.517 122.175 113.964 121.744 116.915 120.88C117.275 123.543 117.419 124.693 117.562 126.852V127.644C119.145 123.543 122.24 121.167 125.982 121.167C129.58 121.167 132.243 123.543 132.243 126.996C132.243 129.084 131.02 130.451 129.22 130.451C127.565 130.451 126.271 129.443 126.271 128.004C126.271 127.861 126.342 127.573 126.414 127.285L126.558 126.565V125.917C126.558 124.91 125.694 124.19 124.398 124.19C120.657 124.19 118.282 128.724 118.282 135.848V150.889C118.282 153.983 119.002 154.559 123.391 154.774V156.215C119.434 155.854 117.922 155.782 115.403 155.782C112.813 155.782 111.302 155.854 107.344 156.215V154.774C111.733 154.559 112.525 153.983 112.525 150.889V128.508V127.357C112.453 124.262 112.093 123.902 108.351 123.83H107.415Z" fill="white"/>
<path d="M159.768 120.522V132.396H158.184C156.888 126.135 154.227 123.112 149.836 123.112C144.44 123.112 141.272 128.941 141.272 139.232C141.272 149.307 144.08 154.416 149.62 154.416C154.083 154.416 156.745 151.25 157.609 144.917H160.558C159.623 152.617 155.521 156.792 149.045 156.792C140.697 156.792 135.012 149.739 135.012 139.232C135.012 128.509 140.768 121.169 149.261 121.169C152.355 121.169 154.298 121.96 156.602 124.191L158.544 120.522H159.768Z" fill="white"/>
<path d="M171.586 135.562C172.306 127.286 175.041 123.04 179.647 123.04C184.324 123.04 186.699 127.07 187.131 135.562H171.586ZM180.942 154.416C174.394 154.416 171.514 149.379 171.442 138.152H192.888C192.743 127.07 188.21 121.169 179.719 121.169C171.082 121.169 165.686 128.15 165.686 139.232C165.686 150.314 171.082 156.792 180.367 156.792C187.419 156.792 192.025 152.401 192.959 144.989H190.081C189.218 151.106 186.052 154.416 180.942 154.416Z" fill="white"/>
<path d="M212.816 154.846C207.635 154.846 204.901 149.449 204.901 139.158C204.901 128.724 207.419 123.614 212.6 123.614C217.925 123.614 220.66 129.083 220.66 139.663C220.66 149.665 217.997 154.846 212.816 154.846ZM226.346 148.729V107.182C222.747 108.141 219.508 108.717 215.479 109.149V110.372C220.013 110.372 220.588 110.876 220.588 114.618V127.212C217.925 122.895 215.838 121.599 211.953 121.599C204.253 121.599 198.855 128.867 198.855 139.23C198.855 149.593 204.324 156.862 212.168 156.862C216.27 156.862 219.077 154.991 221.092 150.96C221.38 153.695 221.38 153.983 222.1 156.718C225.05 155.781 226.274 155.494 230.519 154.991L231.598 154.846V153.623C226.777 153.478 226.346 153.119 226.346 148.729Z" fill="white"/>
<path d="M240.226 135.562C240.945 127.286 243.68 123.04 248.285 123.04C252.963 123.04 255.337 127.07 255.77 135.562H240.226ZM249.582 154.416C243.032 154.416 240.154 149.379 240.082 138.152H261.527C261.383 127.07 256.849 121.169 248.358 121.169C239.721 121.169 234.324 128.15 234.324 139.232C234.324 150.314 239.721 156.792 249.005 156.792C256.058 156.792 260.663 152.401 261.598 144.989H258.72C257.857 151.106 254.69 154.416 249.582 154.416Z" fill="white"/>
<path d="M267.631 156.862V144.843L269.214 144.771C270.51 151.32 273.532 154.486 278.569 154.486C282.815 154.486 285.982 151.679 285.982 148.009C285.982 145.562 284.614 143.907 281.088 142.324L278.352 141.1L275.043 139.59C269.789 137.142 268.134 135.127 268.134 130.954C268.134 125.269 272.596 121.383 278.929 121.383C281.736 121.383 283.823 122.031 286.269 123.686L287.493 120.735H288.788V131.889H287.132C286.484 126.133 284.11 123.398 279.576 123.398C275.762 123.398 272.812 125.989 272.812 129.371C272.812 132.25 273.891 133.185 280.44 136.063L283.462 137.359C288.931 139.733 290.875 142.036 290.875 146.282C290.875 152.328 286.054 156.646 279.288 156.646C275.978 156.646 273.387 155.781 270.653 153.623L268.925 156.862H267.631Z" fill="white"/>
<path d="M330.894 132.036C334.708 132.036 336.867 132.682 338.522 134.338C340.177 135.993 341.113 139.088 341.113 142.542C341.113 149.738 337.515 153.769 331.109 153.769H328.519C324.705 153.769 324.057 153.192 324.057 150.026V132.036H330.894ZM324.057 110.231H330.174C336.219 110.231 338.881 113.181 338.881 119.873C338.881 123.183 338.091 125.559 336.507 127.43C334.924 129.229 332.981 129.804 328.951 129.804H324.057V110.231ZM345.287 119.73C345.287 115.987 343.703 112.677 340.97 110.589C338.522 108.791 335.715 107.999 331.038 107.999H312.111V109.799C317.292 110.086 318.013 110.662 318.013 114.548V149.451C318.013 153.337 317.436 153.84 312.111 154.272V155.999H330.318C335.644 155.999 338.522 155.352 341.544 153.48C345.143 151.178 347.518 146.788 347.518 142.254C347.518 138.368 345.863 134.842 343.055 132.682C341.544 131.531 339.961 130.884 337.371 130.379C342.552 128.437 345.287 124.767 345.287 119.73Z" fill="white"/>
<path d="M359.267 135.562C359.988 127.286 362.722 123.04 367.328 123.04C372.005 123.04 374.38 127.07 374.812 135.562H359.267ZM368.624 154.416C362.075 154.416 359.196 149.379 359.123 138.152H380.568C380.424 127.07 375.891 121.169 367.4 121.169C358.764 121.169 353.367 128.15 353.367 139.232C353.367 150.314 358.764 156.792 368.048 156.792C375.1 156.792 379.706 152.401 380.642 144.989H377.763C376.899 151.106 373.733 154.416 368.624 154.416Z" fill="white"/>
<path d="M384.378 124.118V122.895C388.552 122.319 390.999 121.744 393.877 120.736C394.237 122.391 394.453 124.262 394.598 126.997C397.187 123.111 400.138 121.384 404.312 121.384C408.631 121.384 412.372 123.614 413.811 127.14C414.531 128.868 414.891 130.883 414.891 133.617V150.889C414.891 153.983 415.611 154.559 420 154.775V156.215C416.186 155.855 414.747 155.782 412.156 155.782C409.493 155.782 408.054 155.855 404.312 156.215V154.775C408.198 154.632 409.134 153.911 409.134 151.033V133.402C409.134 127.14 407.263 124.622 402.658 124.622C397.764 124.622 395.173 127.717 395.173 133.617V151.033C395.173 153.911 396.108 154.632 399.85 154.775V156.215C396.108 155.855 394.669 155.782 392.079 155.782C389.56 155.782 388.048 155.855 384.307 156.215V154.775C388.696 154.559 389.415 153.983 389.415 150.889V128.652V127.573C389.344 124.622 388.913 124.19 385.314 124.19C385.098 124.19 384.738 124.118 384.378 124.118Z" fill="white"/>
<path d="M422.799 155.999L442.302 123.903H433.45C428.772 123.903 427.621 124.911 425.031 131.387H423.591L425.246 122.032H450.002L430.428 154.128H438.848C443.742 154.128 445.756 152.185 447.914 145.636H449.427L447.555 155.999H422.799Z" fill="white"/>
</g>
</g>
<defs>
<clipPath id="clip0_536_106">
<rect width="450" height="270" fill="white"/>
</clipPath>
</defs>
</svg>
