<svg width="450" height="270" viewBox="0 0 450 270" fill="none" xmlns="http://www.w3.org/2000/svg">
<path d="M81.5951 75.667C49.9293 75.667 24.1875 101.414 24.1875 133.081C24.1875 153.141 34.4571 170.777 50.0533 181.058V147.456H44.2521V170.418C41.4799 167.032 38.5732 162.809 36.1566 158.697C31.8037 151.082 29.5097 142.742 29.5097 133.08C29.5097 104.069 52.8299 80.5023 81.5979 80.5023C110.364 80.5023 133.689 104.069 133.689 133.08C133.689 142.742 131.271 151.079 126.911 158.822C124.615 162.809 121.594 167.032 118.822 170.418V147.456H113.139V181.065C128.731 170.784 139.004 153.142 139.004 133.082C139.004 101.409 113.261 75.6677 81.5968 75.6677L81.5951 75.667ZM257.677 78.6954L250.067 80.262V82.3138L253.449 83.0414V119.899L249.942 120.62V123.046H262.148V120.509L259.25 119.899V100.437C260.939 98.9876 262.638 97.7826 264.934 97.7826C268.317 97.7826 268.316 101.289 268.316 103.708V120.024L265.419 120.627V123.053H277.507V120.516L274.36 119.906V100.929C274.36 96.5763 271.944 93.437 267.104 93.437C263.849 93.437 261.423 95.2459 259.251 96.9375V78.695H257.678L257.677 78.6954ZM309.768 78.6954C307.714 78.6954 305.901 80.3847 305.901 82.5627C305.897 84.7308 307.715 86.4237 309.893 86.4237C311.947 86.4237 313.754 84.7309 313.754 82.5627C313.754 80.3845 311.943 78.6954 309.768 78.6954ZM175.866 81.1011C173.204 81.1011 170.664 81.4616 168.006 81.4616H160.639V84.005L164.749 84.7261V119.899L160.639 120.62V123.039H167.639C169.092 123.039 175.615 123.157 176.948 123.157C180.337 123.16 186.019 123.283 189.277 117.729C190.126 116.155 190.735 114.22 190.608 111.928C190.608 109.025 189.637 106.368 187.586 104.186C185.653 102.135 183.477 101.408 181.064 100.922C184.081 99.5926 188.313 96.8134 188.313 91.0107C188.313 88.7151 187.351 86.1795 185.777 84.3706C182.756 81.0983 178.158 81.0996 175.866 81.0996L175.866 81.1011ZM174.777 83.7625C176.949 83.7625 181.3 84.7356 181.3 91.7403C181.3 99.6004 176.59 99.8421 173.808 99.8421H170.792V84.4905C172.242 84.0105 173.086 83.7625 174.777 83.7625ZM81.5951 88.1151L64.0666 101.77L67.213 105.886L81.5949 94.7625L95.9831 105.886L99.1164 101.77L81.5951 88.1151ZM207.894 92.8282C199.432 92.8282 195.93 101.53 195.93 108.672C195.93 118.093 201.005 123.65 207.533 123.65C213.94 123.65 219.738 118.211 219.738 107.937C219.738 94.7613 211.397 92.8282 207.894 92.8282ZM235.812 92.9462C227.106 92.9462 224.813 102.257 224.813 109.019C224.813 117.725 228.559 123.65 235.688 123.65C241.245 123.657 243.668 121.351 246.084 116.643L243.429 115.548C242.221 117.481 240.526 119.409 237.982 119.409C232.062 119.409 231.095 112.646 230.857 107.807H246.202C246.085 100.682 244.75 92.9463 235.813 92.9463L235.812 92.9462ZM364.506 92.9527C358.703 92.9527 354.117 96.9439 354.117 102.988C354.117 108.063 357.126 110.118 359.066 111.326C355.918 113.259 353.514 115.31 353.514 117.606C353.514 119.663 354.966 120.869 356.896 121.473C354.842 122.927 352.307 124.732 352.307 127.759C352.307 132.23 357.862 133.921 362.94 133.921C372.24 133.921 377.447 129.329 377.447 123.774C377.447 118.455 374.294 116.645 369.102 116.524L361.368 116.275C360.884 116.275 359.309 115.918 359.309 114.945C359.309 114.22 360.398 113.257 361.492 112.408C362.58 112.649 363.905 112.893 364.993 112.893C369.222 112.893 375.022 109.872 375.022 103.1C375.022 100.69 374.178 99.1138 372.852 97.1739L377.683 97.305V93.68L370.794 93.916C368.743 93.916 366.683 92.9524 364.508 92.9524L364.506 92.9527ZM392.667 92.9527C383.965 92.9527 381.674 102.26 381.674 109.026C381.674 117.732 385.417 123.65 392.549 123.65C398.104 123.65 400.523 121.348 402.939 116.643L400.284 115.548C399.079 117.485 397.384 119.416 394.843 119.416C388.916 119.416 387.956 112.646 387.711 107.82H403.063C402.942 100.695 401.611 92.9527 392.667 92.9527ZM328.852 93.1887L321.36 95.129V97.5477L324.867 97.9083V119.907L321.36 120.628V123.047H333.808V120.51L330.786 119.907V100.203C332.36 98.753 334.17 97.4301 336.345 97.4301C339.731 97.4301 339.734 100.933 339.734 102.379V120.025L336.587 120.628V123.047H348.793V120.51L345.647 119.907V100.93C345.647 96.2151 343.236 93.3135 338.285 93.3135C335.141 93.3135 332.722 95.0147 330.544 96.8272V93.1891L328.852 93.1887ZM415.988 93.1953L408.62 95.1225V97.0627L412.126 97.6723V119.907L408.62 120.628V123.047H422.031V120.504L417.803 119.901V104.07C417.803 103.097 419.129 100.081 421.546 98.9902L424.686 100.688C425.652 99.8389 426.993 98.8688 426.993 97.0566C426.993 94.6468 425.419 93.5561 423.479 93.5561C420.945 93.5561 419.618 95.4952 417.678 98.7608V93.1956H415.987L415.988 93.1953ZM289.464 93.2018L282.096 95.129V97.0627L285.597 97.6723V119.907L282.096 120.628V123.054H295.508V120.51L291.28 119.901V104.077C291.28 103.1 292.731 100.081 295.147 98.9903L298.293 100.681C299.139 99.8324 300.584 98.8723 300.463 97.0565C300.463 94.6434 298.893 93.556 297.081 93.556C294.547 93.556 293.094 95.4985 291.161 98.7607V93.2022L289.464 93.2018ZM311.823 93.4378L304.212 95.365V97.4168L307.352 98.1509V119.907L304.212 120.628V123.047H316.666V120.51L313.277 119.907V93.4381L311.823 93.4378ZM364.387 95.6141C368.253 95.6141 368.622 99.962 368.622 103.231C368.622 106.252 368.13 109.996 364.623 109.996C360.881 109.996 360.395 106.011 360.395 102.746C360.395 99.722 360.639 95.6141 364.387 95.6141ZM208.01 95.732C212.356 95.732 213.208 102.859 213.208 107.813C213.208 111.683 212.73 120.628 207.531 120.628C204.148 120.628 202.333 115.912 202.333 108.777C202.333 105.401 202.57 95.732 208.01 95.732ZM235.928 95.85C239.556 95.85 239.927 101.284 240.045 104.916H230.855C231.217 101.285 232.062 95.85 235.928 95.85ZM392.784 95.85C396.413 95.85 396.774 101.298 396.894 104.916H387.705C388.074 101.298 388.911 95.85 392.784 95.85ZM170.788 102.739H173.443C177.554 102.739 183.721 103.353 183.721 111.562C183.717 114.707 182.629 117.729 179.971 119.179C178.4 120.142 176.347 120.628 174.649 120.628C173.078 120.628 171.875 120.392 170.788 119.671L170.788 102.739ZM78.6909 110.107V190.364C79.6608 190.364 80.6215 190.488 81.5948 190.488C82.558 190.488 83.5317 190.364 84.3741 190.364V110.107H78.6909ZM67.2133 110.113V188.665C69.2639 189.272 70.9635 189.633 72.8966 189.871V110.107H67.2133V110.113ZM90.1691 110.113V190.004C92.1023 189.641 94.161 189.16 95.8525 188.673V110.122H90.1691V110.113ZM360.272 121.964C366.437 122.327 368.972 122.684 371.022 123.046C372.231 123.284 373.081 123.886 373.081 125.943C373.081 128.601 369.211 130.656 364.258 130.656C360.633 130.656 357.972 129.204 357.972 126.546C357.972 124.258 359.181 123.052 360.272 121.964ZM272.784 140.332L265.174 142.023V144.075L268.556 144.442V181.662L265.049 182.389V184.808H277.504V182.265L274.357 181.544V140.334H272.784L272.784 140.332ZM289.827 140.332L282.21 142.023V144.075L285.593 144.684V181.67L282.092 182.391V184.809H294.416V182.279L291.394 181.551V162.207C293.089 160.758 294.785 159.428 297.077 159.428C300.581 159.428 300.459 162.934 300.459 165.354V181.787L297.562 182.39V184.809H309.65V182.279L306.504 181.551V162.574C306.504 158.218 304.09 155.2 299.371 155.2C296.109 155.2 293.565 156.888 291.394 158.7V140.333H289.827L289.827 140.332ZM346.738 140.332C344.688 140.332 342.753 142.142 342.753 144.317C342.753 146.371 344.563 148.184 346.738 148.184C348.789 148.184 350.488 146.371 350.488 144.192C350.488 142.142 348.913 140.332 346.738 140.332ZM160.867 143.111V145.766L164.741 146.369V181.661L160.874 182.389V184.808H174.646V182.264L171.145 181.543V146.369L174.77 145.642V143.111L160.867 143.111ZM55.7251 147.457V184.315C57.5341 185.288 59.4753 186.136 61.4018 186.858V147.457L55.7251 147.457ZM101.651 147.457V186.983C103.581 186.137 105.526 185.288 107.459 184.315V147.458H101.651V147.457ZM222.269 154.707C217.738 154.707 213.948 157.141 212.509 161.078H212.502C212.096 162.186 211.873 163.416 211.873 164.749C211.873 169.824 214.892 171.748 216.822 172.956C213.687 174.892 211.388 177.064 211.388 179.36C211.388 181.297 212.716 182.513 214.77 183.227C212.595 184.56 210.064 186.49 210.064 189.514C210.064 193.991 215.621 195.675 220.696 195.675C230.006 195.675 235.203 191.086 235.203 185.403C235.203 180.211 232.06 178.51 226.865 178.271L219.123 177.911C218.637 177.911 217.071 177.675 217.071 176.698C217.071 175.856 218.161 174.893 219.372 174.037C220.46 174.403 221.674 174.528 222.755 174.528C226.987 174.528 232.784 171.629 232.784 164.742C232.784 163.329 232.466 162.192 231.912 161.077C231.563 160.369 231.128 159.686 230.608 158.934L235.563 159.058V155.427L228.556 155.669C226.495 155.676 224.445 154.706 222.27 154.706L222.269 154.707ZM250.423 154.707C241.721 154.707 239.431 164.02 239.431 170.786C239.431 179.492 243.17 185.404 250.299 185.404C255.86 185.404 258.282 183.112 260.702 178.404L258.041 177.309C256.833 179.239 255.137 181.176 252.6 181.176C246.676 181.176 245.706 174.407 245.468 169.574H260.813C260.699 162.445 259.361 154.707 250.423 154.707ZM325.233 154.707C316.533 154.707 314.234 164.02 314.234 170.786C314.234 179.492 317.983 185.404 325.115 185.404C330.669 185.404 333.091 183.112 335.511 178.404L332.85 177.309C331.642 179.239 329.943 181.176 327.409 181.176C321.489 181.176 320.516 174.407 320.277 169.574H335.623C335.509 162.445 334.173 154.707 325.233 154.707ZM365.829 154.831L358.212 156.758V158.81L361.713 159.42V181.655L358.212 182.382V184.801H370.411V182.264L367.645 181.543V162.074C369.095 160.745 370.657 159.302 373.315 159.302C376.336 159.302 377.065 162.08 377.065 164.375V181.654L373.682 182.382V184.801H385.763V182.264L382.859 181.543V162.199C384.554 160.625 386.133 159.301 388.549 159.301C391.811 159.301 392.05 162.683 392.05 164.257V181.654L388.91 182.388V184.807H401.475V182.264L398.086 181.543V162.441H398.092C398.092 157.611 395.073 155.191 390.475 155.191C387.092 155.191 384.557 156.888 382.261 159.183C381.06 156.643 378.396 155.309 375.496 155.309C372.597 155.309 369.814 156.638 367.395 158.81V154.831H365.828L365.829 154.831ZM186.731 154.838L179.238 156.765V159.19L182.745 159.669V181.674L179.238 182.395V184.814H191.686V182.27L188.54 181.549V161.852C188.852 161.583 189.159 161.326 189.477 161.085C190.911 159.994 192.441 159.19 194.223 159.19C195.922 159.19 196.767 160.041 197.186 161.091C197.609 162.138 197.612 163.357 197.612 164.139V181.786L194.459 182.395V184.814H206.678V182.271L203.531 181.55V162.566C203.531 162.053 203.5 161.555 203.439 161.085C202.963 157.336 200.567 154.956 196.156 154.956C193.022 154.956 190.596 156.771 188.422 158.463V154.838L186.731 154.838ZM348.675 155.192L341.052 157.125V159.065L344.199 159.78V181.654L341.052 182.388V184.807H353.382V182.264L350.117 181.543V155.191L348.675 155.192ZM222.144 157.25C224.557 157.25 225.65 158.98 226.13 161.085H226.137C226.432 162.36 226.498 163.757 226.498 164.985C226.498 167.881 226.012 171.75 222.381 171.75C218.635 171.75 218.277 167.641 218.277 164.5C218.277 163.429 218.306 162.203 218.5 161.078H218.507C218.867 159.014 219.803 157.25 222.146 157.25L222.144 157.25ZM250.547 157.611C254.172 157.611 254.54 163.048 254.657 166.676H245.467C245.83 163.048 246.674 157.611 250.547 157.611ZM325.357 157.611C328.988 157.611 329.346 163.048 329.473 166.676H320.283C320.646 163.048 321.494 157.611 325.357 157.611ZM218.037 183.719C224.202 184.082 226.746 184.321 228.8 184.801C230.008 185.039 230.97 185.644 230.97 187.698C230.97 190.36 227.104 192.411 222.147 192.411C218.526 192.411 215.861 190.845 215.861 188.302C215.861 186.016 216.956 184.679 218.037 183.719Z" fill="white"/>
</svg>
