<svg width="450" height="270" viewBox="0 0 450 270" fill="none" xmlns="http://www.w3.org/2000/svg">
<g clip-path="url(#clip0_717_2)">
<path d="M134.656 244.852V230.163C134.656 224.544 131.233 220.864 125.357 220.864C122.419 220.864 119.225 221.834 117.028 225.029C115.317 222.348 112.864 220.864 109.185 220.864C106.732 220.864 104.279 221.606 102.339 224.287V221.349H97.2051V244.852H102.339V231.874C102.339 227.71 104.535 225.742 107.958 225.742C111.381 225.742 113.092 227.938 113.092 231.874V244.852H118.226V231.874C118.226 227.71 120.679 225.742 123.845 225.742C127.268 225.742 128.979 227.938 128.979 231.874V244.852H134.656ZM210.811 221.349H202.483V214.247H197.349V221.349H192.699V225.998H197.349V236.78C197.349 242.171 199.545 245.337 205.421 245.337C207.617 245.337 210.07 244.595 211.781 243.626L210.298 239.205C208.815 240.174 207.104 240.431 205.877 240.431C203.424 240.431 202.454 238.948 202.454 236.523V225.998H210.783V221.349H210.811ZM254.394 220.836C251.456 220.836 249.488 222.319 248.262 224.259V221.321H243.128V244.824H248.262V231.589C248.262 227.681 249.973 225.457 253.168 225.457C254.138 225.457 255.364 225.713 256.362 225.941L257.846 221.035C256.819 220.836 255.364 220.836 254.394 220.836ZM188.535 223.289C186.082 221.577 182.659 220.836 178.98 220.836C173.104 220.836 169.197 223.774 169.197 228.423C169.197 232.331 172.135 234.555 177.269 235.268L179.722 235.525C182.403 236.01 183.886 236.752 183.886 237.978C183.886 239.689 181.918 240.916 178.495 240.916C175.072 240.916 172.363 239.689 170.651 238.463L168.198 242.371C170.88 244.339 174.559 245.308 178.238 245.308C185.084 245.308 189.02 242.114 189.02 237.721C189.02 233.557 185.825 231.361 180.948 230.619L178.495 230.362C176.299 230.106 174.587 229.621 174.587 228.166C174.587 226.455 176.299 225.485 179.009 225.485C181.946 225.485 184.884 226.712 186.367 227.453L188.535 223.289ZM325.131 220.836C322.193 220.836 320.225 222.319 318.999 224.259V221.321H313.864V244.824H318.999V231.589C318.999 227.681 320.71 225.457 323.904 225.457C324.874 225.457 326.101 225.713 327.099 225.941L328.582 221.093C327.584 220.836 326.129 220.836 325.131 220.836ZM259.528 233.101C259.528 240.203 264.434 245.337 272.021 245.337C275.444 245.337 277.897 244.595 280.35 242.656L277.897 238.491C275.929 239.975 273.99 240.688 271.765 240.688C267.6 240.688 264.663 237.75 264.663 233.101C264.663 228.68 267.6 225.742 271.765 225.514C273.961 225.514 275.929 226.255 277.897 227.71L280.35 223.545C277.897 221.577 275.444 220.864 272.021 220.864C264.434 220.836 259.528 225.998 259.528 233.101ZM307.019 233.101V221.349H301.885V224.287C300.173 222.091 297.72 220.864 294.526 220.864C287.909 220.864 282.775 225.998 282.775 233.101C282.775 240.203 287.909 245.337 294.526 245.337C297.949 245.337 300.402 244.11 301.885 241.914V244.852H307.019V233.101ZM288.165 233.101C288.165 228.936 290.847 225.514 295.268 225.514C299.432 225.514 302.37 228.708 302.37 233.101C302.37 237.265 299.432 240.688 295.268 240.688C290.875 240.431 288.165 237.236 288.165 233.101ZM226.727 220.836C219.882 220.836 214.976 225.742 214.976 233.072C214.976 240.431 219.882 245.308 226.984 245.308C230.407 245.308 233.829 244.339 236.539 242.114L234.086 238.434C232.118 239.918 229.665 240.887 227.241 240.887C224.046 240.887 220.88 239.404 220.138 235.268H237.509C237.509 234.527 237.509 234.042 237.509 233.3C237.737 225.742 233.316 220.836 226.727 220.836ZM226.727 225.257C229.922 225.257 232.118 227.225 232.603 230.876H220.367C220.852 227.71 223.048 225.257 226.727 225.257ZM354.281 233.101V212.051H349.147V224.287C347.436 222.091 344.983 220.864 341.788 220.864C335.171 220.864 330.037 225.998 330.037 233.101C330.037 240.203 335.171 245.337 341.788 245.337C345.211 245.337 347.664 244.11 349.147 241.914V244.852H354.281V233.101ZM335.428 233.101C335.428 228.936 338.109 225.514 342.53 225.514C346.694 225.514 349.632 228.708 349.632 233.101C349.632 237.265 346.694 240.688 342.53 240.688C338.109 240.431 335.428 237.236 335.428 233.101ZM163.549 233.101V221.349H158.415V224.287C156.704 222.091 154.251 220.864 151.056 220.864C144.439 220.864 139.305 225.998 139.305 233.101C139.305 240.203 144.439 245.337 151.056 245.337C154.479 245.337 156.932 244.11 158.415 241.914V244.852H163.549V233.101ZM144.467 233.101C144.467 228.936 147.149 225.514 151.57 225.514C155.734 225.514 158.672 228.708 158.672 233.101C158.672 237.265 155.734 240.688 151.57 240.688C147.149 240.431 144.467 237.236 144.467 233.101Z" fill="white"/>
<path d="M263.946 42.8525H186.82V181.416H263.946V42.8525Z" fill="white"/>
<path d="M191.957 112.136C191.957 83.9835 205.192 58.9975 225.5 42.8536C210.554 31.1022 191.7 24 171.136 24C122.419 24 83 63.4185 83 112.136C83 160.852 122.419 200.271 171.136 200.271C191.7 200.271 210.554 193.169 225.5 181.417C205.163 165.502 191.957 140.288 191.957 112.136Z" fill="white"/>
<path d="M368 112.136C368 160.852 328.581 200.271 279.864 200.271C259.3 200.271 240.446 193.169 225.5 181.417C246.065 165.245 259.043 140.288 259.043 112.136C259.043 83.9835 245.808 58.9975 225.5 42.8536C240.417 31.1022 259.271 24 279.836 24C328.581 24 368 63.6752 368 112.136Z" fill="white"/>
</g>
<defs>
<clipPath id="clip0_717_2">
<rect width="285" height="221.337" fill="white" transform="translate(83 24)"/>
</clipPath>
</defs>
</svg>
